<svg width="107" height="60" viewBox="0 0 107 60" fill="none" xmlns="http://www.w3.org/2000/svg">
<path fill-rule="evenodd" clip-rule="evenodd" d="M107 6.09036C104.563 4.38821 102.391 2.33342 100.558 0H6.97733C5.01063 2.50286 2.65441 4.68515 0 6.45556V15.6447C1.81488 15.8675 3.21 17.2072 3.21 18.8265C3.21 20.4457 1.81488 21.7854 0 22.0082V26.665C1.81489 26.8878 3.21003 28.2275 3.21003 29.8468C3.21003 31.4661 1.81489 32.8057 0 33.0285V37.6854C1.81489 37.9082 3.21003 39.2478 3.21003 40.8671C3.21003 42.4865 1.81489 43.8261 0 44.0489V53.2381C2.65441 55.0085 5.01062 57.1908 6.97732 59.6936H100.558C102.391 57.3602 104.563 55.3054 107 53.6033L107 44.0814C104.932 44.0814 103.255 42.6423 103.255 40.8671C103.255 39.092 104.932 37.6529 107 37.6529V33.061C104.932 33.061 103.255 31.622 103.255 29.8468C103.255 28.0716 104.932 26.6325 107 26.6325L107 22.0407C104.932 22.0407 103.255 20.6016 103.255 18.8265C103.255 17.0513 104.932 15.6122 107 15.6122L107 6.09036ZM48.6326 20.5123C49.0361 19.317 47.8736 18.1878 46.6906 18.6259L46.1263 18.8348L46.0889 18.8487L46.0542 18.8683L43.9574 20.0513C43.8417 20.1166 43.7352 20.197 43.6406 20.2904L41.5226 22.3817L38.7848 25.085C38.6542 25.2139 38.4636 25.261 38.2881 25.2077L27.0284 21.7868C26.5583 21.644 26.0481 21.7404 25.6626 22.0449L25.6296 22.071C24.8056 22.7218 24.8881 23.996 25.7891 24.5352L33.8705 29.3714C34.151 29.5392 34.1977 29.9266 33.9651 30.1562L29.9439 34.1267C29.8104 34.2585 29.6144 34.3045 29.4363 34.2459L27.7388 33.6872C27.2123 33.5139 26.6331 33.6499 26.2387 34.0393C25.5797 34.69 25.6749 35.7796 26.4367 36.3062L28.275 37.5768C28.0276 38.2678 28.7299 38.8881 29.3789 38.6648L30.678 40.4974C31.2082 41.2451 32.2823 41.3394 32.9345 40.6954C33.3389 40.296 33.4802 39.701 33.2984 39.1626L32.7539 37.5495C32.6909 37.3631 32.7431 37.1572 32.8872 37.0233L36.9064 33.2882C37.1356 33.0752 37.5019 33.1227 37.6692 33.387L42.6032 41.182C43.1521 42.0491 44.3901 42.1214 45.0361 41.324L45.0868 41.2615C45.4026 40.8717 45.5027 40.3499 45.3534 39.871L41.9001 28.789C41.8445 28.6105 41.8931 28.4158 42.0261 28.2844L46.8967 23.4752C46.9672 23.4056 47.0306 23.3293 47.086 23.2472L48.295 21.4565L48.3328 21.4006L48.3543 21.3366L48.6326 20.5123ZM47.0378 19.5637C47.4322 19.4176 47.8197 19.7941 47.6852 20.1925L47.4285 20.9528L46.2572 22.6876C46.2387 22.715 46.2176 22.7404 46.1941 22.7636L41.3235 27.5729C40.9244 27.967 40.7785 28.5509 40.9454 29.0865L44.3987 40.1685C44.4484 40.3281 44.4151 40.5021 44.3098 40.632L44.2592 40.6945C44.0438 40.9603 43.6311 40.9362 43.4482 40.6472L38.5142 32.8522C38.0122 32.0591 36.9132 31.9167 36.2256 32.5557L32.2065 36.2908C31.7742 36.6925 31.6176 37.3102 31.8064 37.8693L32.3509 39.4824C32.4104 39.6585 32.3642 39.8532 32.2319 39.9838C32.0186 40.1944 31.6672 40.1636 31.4938 39.919L30.1327 37.9991C29.9388 37.7256 29.6133 37.5989 29.3007 37.6439C29.3436 37.33 29.2103 37.0076 28.9369 36.8186L27.0053 35.4835C26.7591 35.3134 26.7283 34.9612 26.9413 34.7509C27.0688 34.625 27.256 34.5811 27.4262 34.6371L29.1236 35.1958C29.6581 35.3717 30.2461 35.2337 30.6465 34.8383L34.6677 30.8678C35.3654 30.1789 35.2254 29.0168 34.384 28.5133L26.3026 23.6771C26.0023 23.4974 25.9748 23.0727 26.2494 22.8557L26.2824 22.8296C26.4109 22.7281 26.581 22.696 26.7377 22.7436L37.9974 26.1645C38.5239 26.3245 39.0958 26.1833 39.4874 25.7966L42.2252 23.0933L44.3432 21.0019C44.3747 20.9708 44.4102 20.944 44.4488 20.9223L46.5109 19.7588L47.0378 19.5637ZM58.472 37.8111V24.1791H53.096V21.0111H67.736V24.1791H62.36V37.8111H58.472ZM75.2308 38.0991C73.8867 38.0991 72.5987 37.9231 71.3668 37.5711C70.1348 37.2031 69.1428 36.7311 68.3907 36.1551L69.7107 33.2271C70.4307 33.7391 71.2787 34.1631 72.2548 34.4991C73.2467 34.8191 74.2467 34.9791 75.2548 34.9791C76.0228 34.9791 76.6387 34.9071 77.1028 34.7631C77.5827 34.6031 77.9348 34.3871 78.1588 34.1151C78.3828 33.8431 78.4948 33.5311 78.4948 33.1791C78.4948 32.7311 78.3187 32.3791 77.9668 32.1231C77.6148 31.8511 77.1507 31.6351 76.5748 31.4751C75.9987 31.2991 75.3587 31.1391 74.6547 30.9951C73.9668 30.8351 73.2708 30.6431 72.5667 30.4191C71.8788 30.1951 71.2467 29.9071 70.6708 29.5551C70.0947 29.2031 69.6227 28.7391 69.2548 28.1631C68.9027 27.5871 68.7268 26.8511 68.7268 25.9551C68.7268 24.9951 68.9827 24.1231 69.4948 23.3391C70.0228 22.5391 70.8067 21.9071 71.8467 21.4431C72.9027 20.9631 74.2227 20.7231 75.8067 20.7231C76.8627 20.7231 77.9027 20.8511 78.9268 21.1071C79.9508 21.3471 80.8548 21.7151 81.6387 22.2111L80.4388 25.1631C79.6548 24.7151 78.8708 24.3871 78.0868 24.1791C77.3027 23.9551 76.5348 23.8431 75.7828 23.8431C75.0307 23.8431 74.4147 23.9311 73.9348 24.1071C73.4548 24.2831 73.1107 24.5151 72.9027 24.8031C72.6947 25.0751 72.5908 25.3951 72.5908 25.7631C72.5908 26.1951 72.7667 26.5471 73.1188 26.8191C73.4707 27.0751 73.9348 27.2831 74.5107 27.4431C75.0868 27.6031 75.7188 27.7631 76.4068 27.9231C77.1107 28.0831 77.8067 28.2671 78.4948 28.4751C79.1988 28.6831 79.8388 28.9631 80.4147 29.3151C80.9908 29.6671 81.4548 30.1311 81.8067 30.7071C82.1748 31.2831 82.3587 32.0111 82.3587 32.8911C82.3587 33.8351 82.0947 34.6991 81.5667 35.4831C81.0387 36.2671 80.2467 36.8991 79.1908 37.3791C78.1507 37.8591 76.8307 38.0991 75.2308 38.0991ZM23.375 8.92389H83.625C88.5956 8.92389 92.625 12.9533 92.625 17.9239V41.2414C92.625 46.212 88.5956 50.2414 83.625 50.2414H23.375C18.4044 50.2414 14.375 46.212 14.375 41.2414V17.9239C14.375 12.9533 18.4044 8.92389 23.375 8.92389ZM13.375 17.9239C13.375 12.401 17.8522 7.92389 23.375 7.92389H83.625C89.1479 7.92389 93.625 12.401 93.625 17.9239V41.2414C93.625 46.7642 89.1479 51.2414 83.625 51.2414H23.375C17.8522 51.2414 13.375 46.7642 13.375 41.2414V17.9239Z" fill="white"/>
</svg>
